<?xml version="1.0" encoding="utf-8"?>
<!-- Generator: Adobe Illustrator 26.0.1, SVG Export Plug-In . SVG Version: 6.00 Build 0)  -->
<svg version="1.1" id="Layer_1" xmlns="http://www.w3.org/2000/svg" xmlns:xlink="http://www.w3.org/1999/xlink" x="0px" y="0px"
	 viewBox="0 0 612 792" style="enable-background:new 0 0 612 792;" xml:space="preserve">
<style type="text/css">
	.st0{fill:#33AAE1;}
	.st1{fill:#8AC63F;}
	.st2{fill:#EC2027;}
	.st3{fill:url(#SVGID_1_);}
</style>
<path class="st0" d="M211.67,189.38c6.59-32.45,29.49-55.55,42.98-64.48c1.42-0.94,2.89-1.82,4.38-2.66l7.04,6.39
	c-2.23,1.13-4.39,2.38-6.47,3.76c-11.04,7.31-26.85,23.4-35.1,44.7c-1.84,4.75-3.21,9.53-4.17,14.34
	c-0.85,4.26-1.36,8.55-1.52,12.87h-8.92C210.08,199.14,210.7,194.16,211.67,189.38z"/>
<path class="st1" d="M372.6,210.71c-0.38-2.13-0.07-4.6,0.35-8.02c1.24-10.02,3.27-26.62-10.17-48.06l7.79-4.49
	c14.95,24.02,12.59,43.2,11.3,53.65c-0.26,2.14-0.56,4.56-0.42,5.36c0.18,1.03,1.01,2.82,2.23,5.03l-7.81,4.29
	C374.14,215.31,372.93,212.56,372.6,210.71z"/>
<path class="st1" d="M294.35,190.3c13.35,7.96,24.88,14.83,37.31,12.99c9.44-1.4,13.53-8.41,15.13-12.46
	c3.3-8.38,2.11-18.62-2.89-24.9c-3.87-4.86-9.65-6.86-16.71-5.79c-4.23,0.64-8.01,2.82-11.89,6.86l-6.48-6.22
	c5.25-5.47,10.82-8.58,17.02-9.52c10.27-1.55,19.17,1.67,25.07,9.08c7.02,8.81,8.72,22.39,4.23,33.79
	c-3.92,9.96-12,16.54-22.16,18.05c-1.86,0.28-3.68,0.41-5.48,0.41c-13.32,0-25.23-7.1-37.75-14.56
	c-5.86-3.49-12.05-7.17-18.77-10.35l2.16-8.93C280.81,182.23,287.77,186.38,294.35,190.3z"/>
<g>
	<path class="st1" d="M327.49,212.58c1.8,0,3.63-0.13,5.48-0.41l-1.32-8.88c-12.43,1.84-23.96-5.03-37.31-12.99
		c-14.86-8.86-31.71-18.91-54.42-19.95c-8.14-0.37-14.89,1.97-20.05,6.98c-10.15,9.84-10.03,26.4-10.02,27.1l8.98-0.13
		c0-0.12-0.05-13.44,7.31-20.55c3.36-3.24,7.74-4.68,13.36-4.43c20.46,0.94,36.28,10.37,50.23,18.69
		C302.26,205.48,314.17,212.58,327.49,212.58z"/>
</g>
<g>
	<path class="st2" d="M356.31,192.66c0.16,0,0.32,0,0.48,0c9.18-0.06,15.51-3.01,18.81-8.78c7-12.21-3.79-31.57-5.04-33.74
		l-7.78,4.49l3.89-2.25l-3.89,2.24c2.5,4.35,8.79,18.23,5.02,24.79c-1.6,2.79-5.32,4.22-11.07,4.25
		c-20.83,0.13-36.16-9.33-50.99-18.48c-2.55-1.57-5.04-3.11-7.51-4.57c-12.17-7.17-22.73-11.58-34.73-9.8l1.32,8.88
		c9.39-1.4,18.32,2.45,28.85,8.65c2.42,1.42,4.86,2.93,7.35,4.47C316.09,182.13,333.15,192.66,356.31,192.66z"/>
</g>
<g>
	<path class="st0" d="M268.32,211.84c0.62,0,1.24-0.01,1.87-0.04c14.71-0.69,23.37-12.43,30.33-23.39l-7.58-4.82
		c-7.34,11.55-13.77,18.79-23.16,19.23c-14.92,0.7-21.26-9.8-22.15-19c-1.03-10.56,4.55-22.23,17.22-24.11
		c12.04-1.79,23.24,5.12,36.2,13.12c15.06,9.3,32.11,19.82,55.28,19.82c0.16,0,0.32,0,0.49,0c9.18-0.06,15.51-3.01,18.81-8.78
		c7-12.21-3.79-31.57-5.04-33.74l-7.78,4.49l3.89-2.25l-3.89,2.24c2.5,4.35,8.79,18.23,5.02,24.79c-1.6,2.79-5.32,4.22-11.07,4.25
		c-0.14,0-0.29,0-0.43,0c-20.61,0-35.83-9.4-50.56-18.48c-13.86-8.55-26.95-16.63-42.24-14.36c-13.78,2.05-26.74,14.34-24.84,33.87
		C240.01,198.41,249.69,211.84,268.32,211.84z"/>
</g>
<g>
	
		<linearGradient id="SVGID_1_" gradientUnits="userSpaceOnUse" x1="-602.2935" y1="178.236" x2="-593.1134" y2="193.5888" gradientTransform="matrix(-1 0 0 1 -301.8792 0)">
		<stop  offset="7.027116e-04" style="stop-color:#8AC63F"/>
		<stop  offset="1" style="stop-color:#33AAE1"/>
	</linearGradient>
	<path class="st3" d="M270.19,211.8c16.38-0.77,25.41-15.38,33.37-28.27c6.95-11.24,13.51-21.86,23.62-23.39l-1.34-8.88
		c-14.22,2.15-22.2,15.07-29.92,27.55c-7.46,12.07-14.5,23.47-26.15,24.02L270.19,211.8z"/>
</g>
<path class="st1" d="M219.87,177.33c5.16-5,11.91-7.35,20.05-6.98c12.67,0.58,23.51,3.97,33.2,8.38l-2.16,8.93
	c-9.29-4.39-19.59-7.8-31.46-8.34c-5.63-0.26-10.01,1.19-13.36,4.43c-7.36,7.1-7.32,20.42-7.31,20.55l-8.98,0.13
	C209.85,203.73,209.72,187.16,219.87,177.33z"/>
<g>
	<path class="st0" d="M317.18,113.68c21.93,4.49,40.4,16.67,52.01,34.3c0.48,0.73,0.94,1.44,1.38,2.16l-7.79,4.49
		c-0.36-0.57-0.72-1.14-1.1-1.72c-10.28-15.62-26.73-26.43-46.3-30.44c-17.17-3.52-34.74-1.26-49.3,6.16l-7.04-6.39
		C275.96,112.65,296.85,109.51,317.18,113.68z"/>
</g>
<g>
	<path class="st1" d="M209.9,204.3h8.92c-0.71,18.45,4.85,37.3,16.68,56.32c11.67,18.77,13.54,42.21,4.99,62.7l-8.43,20.2h83.66
		l4.12-18.75c2.55-11.6,12.06-17.81,23.67-15.46c2.5,0.51,4.71,0.99,6.72,1.43c7.2,1.57,11.54,2.52,18.61,2.21
		c1.88-0.08,4.35-0.44,5.39-1.66c1.47-1.72,0.95-6.15,0.49-10.05c-0.21-1.81-0.43-3.67-0.51-5.51c-0.34-8.16,3.2-10.64,6.55-12.32
		c1.1-0.55,1.51-0.79,1.83-1.28c0.84-1.3-1-4.58-2.24-6.03c-0.94-1.08-1.31-2.54-1-3.93c0.31-1.4,1.27-2.56,2.58-3.14
		c1.44-0.63,2.01-1.11,2.21-1.31c-0.06-0.27-0.27-0.94-1.07-2.15c-3.06-4.65-2.69-8.15-1.84-10.27c1.09-2.73,3.54-4.67,6.89-5.45
		c1.84-0.43,5.29-2.5,6.92-4c-4.35-4.74-14.02-17.95-19.16-27.38l7.81-4.29c4.74,8.59,15.52,23.67,18.51,26.17
		c2.09,1.75,2.93,4.24,2.31,6.83c-1.43,6-10.85,10.6-14.35,11.41c-0.22,0.05-0.38,0.11-0.51,0.16c0.09,0.35,0.33,0.99,0.92,1.88
		c2.36,3.58,3.08,6.74,2.22,9.65c-0.53,1.8-1.61,3.19-2.8,4.25c1.82,3.66,2.79,8.35,0.15,12.46c-1.67,2.6-3.88,3.71-5.35,4.45
		c-1.54,0.77-1.74,0.87-1.61,3.92c0.06,1.49,0.25,3.11,0.46,4.83c0.67,5.72,1.44,12.21-2.57,16.92c-2.55,3-6.43,4.58-11.84,4.81
		c-8.24,0.36-13.56-0.8-20.92-2.41c-1.97-0.43-4.13-0.9-6.58-1.4c-9.71-1.97-12.41,5.35-13.12,8.58l-4.89,22.28
		c-0.45,2.06-2.28,3.53-4.39,3.53h-94.02c-1.5,0-2.9-0.75-3.74-2c-0.83-1.25-0.99-2.83-0.41-4.22l11.03-26.42
		c7.43-17.82,5.82-38.19-4.33-54.49C214.04,243.13,209.26,222.55,209.9,204.3z"/>
</g>
</svg>
